<svg xmlns="http://www.w3.org/2000/svg" xmlns:xlink="http://www.w3.org/1999/xlink" width="1920" zoomAndPan="magnify" viewBox="0 0 1440 809.999993" height="1080" preserveAspectRatio="xMidYMid meet" version="1.0"><defs><clipPath id="10d5b6fea8"><path d="M 468 198 L 972 198 L 972 612 L 468 612 Z M 468 198 " clip-rule="nonzero"/></clipPath><clipPath id="034e7469cf"><path d="M 729.15625 488.183594 C 726.003906 474.855469 725.652344 461.234375 726.035156 447.632812 C 728.28125 367.046875 764.589844 304.039062 826.257812 254.351562 C 854.585938 231.523438 886.5625 215.261719 920.925781 203.585938 C 925.480469 202.035156 929.964844 200.269531 934.910156 198.4375 C 934.910156 205.339844 934.367188 211.898438 935.0625 218.324219 C 935.808594 225.214844 933.066406 228.921875 927.425781 232.621094 C 906.300781 246.464844 885.152344 260.347656 864.8125 275.308594 C 840.070312 293.511719 821.136719 316.734375 810.480469 345.941406 C 801.816406 369.6875 798.492188 394.117188 803.445312 419.214844 C 804.292969 423.503906 805.695312 427.804688 807.597656 431.746094 C 812.636719 442.171875 823.101562 447.128906 836.078125 444.902344 C 845.691406 443.25 855.121094 440.550781 864.671875 438.546875 C 891.902344 432.84375 917.792969 435.554688 940.824219 452.367188 C 960.320312 466.59375 969.898438 486.378906 971.621094 510.339844 C 974.996094 557.144531 940.460938 601.082031 891.417969 609.523438 C 851.210938 616.445312 815.445312 605.453125 784.539062 579.15625 C 756.148438 555.007812 737.75 524.511719 729.15625 488.183594 Z M 471.378906 488.183594 C 479.960938 524.511719 498.367188 555.007812 526.746094 579.15625 C 557.667969 605.453125 593.429688 616.445312 633.640625 609.523438 C 682.683594 601.082031 717.230469 557.144531 713.863281 510.339844 C 712.140625 486.378906 702.558594 466.59375 683.066406 452.367188 C 660.035156 435.554688 634.144531 432.84375 606.910156 438.546875 C 597.351562 440.550781 587.929688 443.25 578.320312 444.902344 C 565.355469 447.128906 554.875 442.171875 549.839844 431.746094 C 547.933594 427.816406 546.535156 423.503906 545.6875 419.214844 C 540.730469 394.117188 544.046875 369.6875 552.71875 345.941406 C 563.378906 316.742188 582.300781 293.511719 607.050781 275.308594 C 627.394531 260.347656 648.539062 246.464844 669.667969 232.621094 C 675.308594 228.921875 678.039062 225.214844 677.304688 218.324219 C 676.609375 211.898438 677.152344 205.339844 677.152344 198.4375 C 672.203125 200.269531 667.722656 202.035156 663.167969 203.585938 C 628.792969 215.261719 596.828125 231.523438 568.496094 254.351562 C 506.828125 304.039062 470.53125 367.046875 468.273438 447.632812 C 467.882812 461.234375 468.234375 474.855469 471.378906 488.183594 Z M 471.378906 488.183594 " clip-rule="nonzero"/></clipPath></defs><g clip-path="url(#10d5b6fea8)"><g clip-path="url(#034e7469cf)"><path fill="#ffffff" d="M 971.863281 611.546875 L 468.132812 611.546875 L 468.132812 198.449219 L 971.863281 198.449219 Z M 971.863281 611.546875 " fill-opacity="1" fill-rule="nonzero"/></g></g></svg>